<mxfile host="app.diagrams.net" agent="Mozilla/5.0 (Windows NT 10.0; Win64; x64) AppleWebKit/537.36 (KHTML, like Gecko) Chrome/134.0.0.0 Safari/537.36" version="26.1.1">
  <diagram name="PaginÄƒ-1" id="gxHB45NWJPXVlNg1YLA8">
    <mxGraphModel dx="1843" dy="746" grid="1" gridSize="10" guides="1" tooltips="1" connect="1" arrows="1" fold="1" page="1" pageScale="1" pageWidth="827" pageHeight="1169" math="0" shadow="0">
      <root>
        <mxCell id="0" />
        <mxCell id="1" parent="0" />
        <mxCell id="VT8RmkYw7R3qNM44w7Uv-1" value="&lt;font style=&quot;font-size: 20px;&quot;&gt;Presentation&lt;/font&gt;&lt;div&gt;&lt;font style=&quot;font-size: 8px;&quot;&gt;TaskManagementGUI&lt;/font&gt;&lt;/div&gt;" style="shape=folder;fontStyle=1;spacingTop=10;tabWidth=40;tabHeight=14;tabPosition=left;html=1;whiteSpace=wrap;" vertex="1" parent="1">
          <mxGeometry x="114" y="269" width="200" height="150" as="geometry" />
        </mxCell>
        <mxCell id="VT8RmkYw7R3qNM44w7Uv-2" value="&lt;font style=&quot;font-size: 20px;&quot;&gt;BusinessLogic&lt;/font&gt;&lt;div&gt;&lt;font style=&quot;font-size: 8px;&quot;&gt;TasksManagement&lt;/font&gt;&lt;/div&gt;&lt;div&gt;&lt;font style=&quot;font-size: 8px;&quot;&gt;Utility&lt;/font&gt;&lt;/div&gt;" style="shape=folder;fontStyle=1;spacingTop=10;tabWidth=40;tabHeight=14;tabPosition=left;html=1;whiteSpace=wrap;" vertex="1" parent="1">
          <mxGeometry x="114" y="509" width="200" height="150" as="geometry" />
        </mxCell>
        <mxCell id="VT8RmkYw7R3qNM44w7Uv-3" value="&lt;font style=&quot;font-size: 20px;&quot;&gt;DataAccess&lt;/font&gt;&lt;div&gt;&lt;font style=&quot;font-size: 8px;&quot;&gt;SerializationOperations&lt;/font&gt;&lt;/div&gt;" style="shape=folder;fontStyle=1;spacingTop=10;tabWidth=40;tabHeight=14;tabPosition=left;html=1;whiteSpace=wrap;" vertex="1" parent="1">
          <mxGeometry x="114" y="749" width="200" height="150" as="geometry" />
        </mxCell>
        <mxCell id="VT8RmkYw7R3qNM44w7Uv-4" value="&lt;font style=&quot;font-size: 20px;&quot;&gt;Model&lt;/font&gt;&lt;div&gt;&lt;font style=&quot;font-size: 8px;&quot;&gt;SimpleTask&lt;/font&gt;&lt;/div&gt;&lt;div&gt;&lt;font style=&quot;font-size: 8px;&quot;&gt;ComplexTask&lt;/font&gt;&lt;/div&gt;&lt;div&gt;&lt;font style=&quot;font-size: 8px;&quot;&gt;Task&lt;/font&gt;&lt;/div&gt;&lt;div&gt;&lt;font style=&quot;font-size: 8px;&quot;&gt;Employee&lt;/font&gt;&lt;/div&gt;" style="shape=folder;fontStyle=1;spacingTop=10;tabWidth=40;tabHeight=14;tabPosition=left;html=1;whiteSpace=wrap;" vertex="1" parent="1">
          <mxGeometry x="514" y="509" width="200" height="150" as="geometry" />
        </mxCell>
        <mxCell id="VT8RmkYw7R3qNM44w7Uv-6" value="Use" style="endArrow=open;endSize=12;dashed=1;html=1;rounded=0;exitX=0.5;exitY=1;exitDx=0;exitDy=0;exitPerimeter=0;entryX=0.499;entryY=0.086;entryDx=0;entryDy=0;entryPerimeter=0;" edge="1" parent="1" source="VT8RmkYw7R3qNM44w7Uv-2" target="VT8RmkYw7R3qNM44w7Uv-3">
          <mxGeometry x="0.0053" width="160" relative="1" as="geometry">
            <mxPoint x="194" y="739" as="sourcePoint" />
            <mxPoint x="354" y="739" as="targetPoint" />
            <mxPoint as="offset" />
          </mxGeometry>
        </mxCell>
        <mxCell id="VT8RmkYw7R3qNM44w7Uv-7" value="Use" style="endArrow=open;endSize=12;dashed=1;html=1;rounded=0;exitX=0.5;exitY=1;exitDx=0;exitDy=0;exitPerimeter=0;entryX=0.498;entryY=0.089;entryDx=0;entryDy=0;entryPerimeter=0;" edge="1" parent="1" source="VT8RmkYw7R3qNM44w7Uv-1" target="VT8RmkYw7R3qNM44w7Uv-2">
          <mxGeometry width="160" relative="1" as="geometry">
            <mxPoint x="214" y="529" as="sourcePoint" />
            <mxPoint x="374" y="529" as="targetPoint" />
          </mxGeometry>
        </mxCell>
        <mxCell id="VT8RmkYw7R3qNM44w7Uv-8" value="Use" style="endArrow=open;endSize=12;dashed=1;html=1;rounded=0;exitX=0;exitY=0;exitDx=200;exitDy=82;exitPerimeter=0;entryX=0;entryY=0;entryDx=0;entryDy=48;entryPerimeter=0;" edge="1" parent="1" source="VT8RmkYw7R3qNM44w7Uv-1" target="VT8RmkYw7R3qNM44w7Uv-4">
          <mxGeometry width="160" relative="1" as="geometry">
            <mxPoint x="244" y="569" as="sourcePoint" />
            <mxPoint x="404" y="569" as="targetPoint" />
          </mxGeometry>
        </mxCell>
        <mxCell id="VT8RmkYw7R3qNM44w7Uv-9" value="Use" style="endArrow=open;endSize=12;dashed=1;html=1;rounded=0;exitX=0;exitY=0;exitDx=200;exitDy=82;exitPerimeter=0;entryX=0;entryY=0;entryDx=0;entryDy=82;entryPerimeter=0;" edge="1" parent="1" source="VT8RmkYw7R3qNM44w7Uv-2" target="VT8RmkYw7R3qNM44w7Uv-4">
          <mxGeometry width="160" relative="1" as="geometry">
            <mxPoint x="244" y="569" as="sourcePoint" />
            <mxPoint x="404" y="569" as="targetPoint" />
          </mxGeometry>
        </mxCell>
        <mxCell id="VT8RmkYw7R3qNM44w7Uv-10" value="Use" style="endArrow=open;endSize=12;dashed=1;html=1;rounded=0;exitX=0;exitY=0;exitDx=200;exitDy=82;exitPerimeter=0;entryX=0;entryY=0;entryDx=0;entryDy=116;entryPerimeter=0;" edge="1" parent="1" source="VT8RmkYw7R3qNM44w7Uv-3" target="VT8RmkYw7R3qNM44w7Uv-4">
          <mxGeometry width="160" relative="1" as="geometry">
            <mxPoint x="244" y="569" as="sourcePoint" />
            <mxPoint x="404" y="569" as="targetPoint" />
          </mxGeometry>
        </mxCell>
      </root>
    </mxGraphModel>
  </diagram>
</mxfile>
